#!OML:ASF Y:\EmotionMaleHayes\Project 1\Capture day 1\Session 1\Male1.ASF
:FULLY-SPECIFIED
:DEGREES
132
root -18.7264 16.7904 0.6908 74.7497 80.2253 75.0387
lowerback 10.5334 2.1167 -12.0097
upperback 3.79999 1.7611 -3.65728
thorax -2.10133 0.958834 2.66333
lowerneck -22.5251 2.36703 2.86689
upperneck 18.4033 2.9109 -2.45723
head 9.61035 1.27546 -0.900132
rclavicle -6.36111e-015 -8.8658e-014
rhumerus -37.8725 2.24114 -88.4314
rradius 28.4044
rwrist 7.57032
rhand -9.67253 -29.8144
rfingers 7.12502
rthumb 16.299 -59.1494
lclavicle -6.36111e-015 -8.8658e-014
lhumerus -21.7491 -8.56302 87.1779
lradius 24.4476
lwrist -18.6967
lhand -14.2301 -26.3421
lfingers 7.12502
lthumb 11.9073 3.29928
rfemur -14.3669 -2.65176 7.42506
rtibia 69.2695
rfoot -6.84724 2.82363
rtoes 11.7003
lfemur -1.47265 0.352753 -32.0883
ltibia 19.1151
lfoot -19.2356 6.83777
ltoes -8.55501
133
root -18.5691 16.8279 0.680741 75.7925 80.0504 76.1214
lowerback 10.6848 1.99328 -12.322
upperback 3.72294 1.53428 -3.62169
thorax -2.24135 0.854628 2.89596
lowerneck -22.4104 2.46865 2.65628
upperneck 18.4333 3.0404 -2.09379
head 9.59441 1.36466 -0.720321
rclavicle 9.44227e-015 3.89618e-014
rhumerus -38.4885 2.1445 -88.1121
rradius 28.349
rwrist 7.15431
rhand -9.69457 -29.1528
rfingers 7.12502
rthumb 16.2777 -58.4895
lclavicle 9.44227e-015 3.89618e-014
lhumerus -21.3479 -9.60386 87.3294
lradius 25.4027
lwrist -17.8165
lhand -14.2467 -26.2027
lfingers 7.12502
lthumb 11.8913 3.4396
rfemur -16.1106 -2.98252 7.3391
rtibia 69.1895
rfoot -8.46271 2.77627
rtoes 8.15672
lfemur -0.224058 0.136664 -32.4569
ltibia 17.9317
lfoot -19.1199 6.91205
ltoes -9.25143
134
root -18.4152 16.8622 0.673466 76.766 79.8974 77.1232
lowerback 10.8967 1.89996 -12.5748
upperback 3.62559 1.33985 -3.62296
thorax -2.4372 0.771405 3.05196
lowerneck -22.2397 2.43938 2.70035
upperneck 18.3556 2.96549 -1.99552
head 9.53394 1.34633 -0.705712
rclavicle -2.45499e-014 -1.74931e-014
rhumerus -39.1866 2.19764 -87.944
rradius 28.4517
rwrist 6.45634
rhand -8.46806 -30.1859
rfingers 7.12502
rthumb 17.4584 -59.422
lclavicle -2.45499e-014 -1.74931e-014
lhumerus -20.7094 -10.3281 87.3577
lradius 25.9729
lwrist -17.2237
lhand -14.3305 -26.1214
lfingers 7.12502
lthumb 11.8104 3.52563
rfemur -17.8301 -3.31993 7.31237
rtibia 68.9191
rfoot -9.13828 2.29142
rtoes 7.96431
lfemur 0.954406 -0.0489267 -32.7801
ltibia 16.8417
lfoot -19.1486 6.8557
ltoes -8.83697
135
root -18.2572 16.8922 0.668096 78.0536 79.9912 78.4617
lowerback 10.6527 1.75014 -12.9217
upperback 3.86863 1.17938 -3.30963
thorax -2.02749 0.658398 3.60412
lowerneck -22.1327 2.34715 2.90555
upperneck 17.873 2.90246 -2.61717
head 9.35785 1.25893 -0.966157
rclavicle 5.96354e-015 4.37326e-015
rhumerus -39.5016 2.73254 -87.5382
rradius 28.889
rwrist 5.81253
rhand -9.42323 -29.5486
rfingers 7.12502
rthumb 16.539 -58.8638
lclavicle 5.96354e-015 4.37326e-015
lhumerus -19.6732 -10.6629 87.5693
lradius 26.6268
lwrist -16.3522
lhand -14.1701 -26.2949
lfingers 7.12502
lthumb 11.9651 3.34318
rfemur -19.4229 -3.73997 7.57917
rtibia 68.4466
rfoot -9.32305 1.27851
rtoes 9.88937
lfemur 2.16372 -0.277938 -32.8087
ltibia 15.7544
lfoot -19.2273 6.74563
ltoes -8.05191
136
root -18.0941 16.9141 0.665118 79.567 80.1615 80.1046
lowerback 11.2004 1.67255 -12.8793
upperback 3.61811 0.956538 -3.20403
thorax -2.56521 0.582173 3.70888
lowerneck -21.8298 2.30898 3.16087
upperneck 17.9065 2.82721 -2.82355
head 9.32138 1.22162 -1.09219
rclavicle -2.5842e-015 1.11319e-014
rhumerus -40.6467 2.7607 -87.3242
rradius 29.4236
rwrist 5.32914
rhand -9.22051 -29.9927
rfingers 7.12502
rthumb 16.7342 -59.2915
lclavicle -2.5842e-015 1.11319e-014
lhumerus -19.6688 -11.7839 87.7028
lradius 27.6751
lwrist -15.2146
lhand -14.3475 -26.2422
lfingers 7.12502
lthumb 11.7941 3.40571
rfemur -20.7702 -4.12791 7.96627
rtibia 67.5695
rfoot -9.37455 -0.144848
rtoes 11.1791
lfemur 3.45933 -0.486558 -32.7198
ltibia 14.7121
lfoot -19.2975 6.6852
ltoes -7.52984
137
root -17.9303 16.9305 0.65914 81.2231 80.1169 81.8569
lowerback 10.9587 1.53096 -13.0941
upperback 3.79182 0.812498 -3.12649
thorax -2.22333 0.486858 3.93476
lowerneck -21.5295 2.41252 3.29322
upperneck 17.6423 2.91668 -2.77034
head 9.18058 1.28137 -1.08422
rclavicle 8.05078e-015 3.37934e-014
rhumerus -41.2232 3.02708 -87.174
rradius 29.9001
rwrist 4.54224
rhand -9.16437 -30.1045
rfingers 7.12502
rthumb 16.7882 -59.3987
lclavicle 8.05078e-015 3.37934e-014
lhumerus -19.0808 -12.9283 87.6981
lradius 28.7409
lwrist -14.2038
lhand -14.8243 -25.9396
lfingers 7.12502
lthumb 11.3342 3.73416
rfemur -22.0577 -4.42758 8.06109
rtibia 66.8292
rfoot -10.4173 -1.17348
rtoes 12.1697
lfemur 4.68415 -0.681149 -32.9158
ltibia 13.7572
lfoot -19.4258 6.65627
ltoes -7.08985
138
root -17.768 16.9425 0.652649 82.7858 80.0242 83.4117
lowerback 11.0493 1.44331 -13.327
upperback 3.67737 0.642715 -3.0719
thorax -2.36839 0.413304 4.14077
lowerneck -21.28 2.46813 3.40593
upperneck 17.6675 2.94527 -2.66736
head 9.14656 1.3172 -1.06461
rclavicle 2.98177e-015 6.12257e-014
rhumerus -42.2268 3.24785 -87.0333
rradius 30.4621
rwrist 3.80171
rhand -9.09952 -29.9821
rfingers 7.12502
rthumb 16.8506 -59.271
lclavicle 2.98177e-015 6.12257e-014
lhumerus -18.762 -13.847 87.712
lradius 29.7466
lwrist -12.8851
lhand -14.7468 -25.9298
lfingers 7.12502
lthumb 11.409 3.7398
rfemur -23.4201 -4.77132 8.10138
rtibia 65.4686
rfoot -11.4664 -2.54575
rtoes 8.50918
lfemur 5.76878 -0.844084 -33.1667
ltibia 12.8111
lfoot -19.4678 6.67849
ltoes -7.59744
139
root -17.6064 16.9465 0.649902 83.8958 80.0123 84.4934
lowerback 11.2078 1.36868 -13.509
upperback 3.54565 0.48024 -2.96998
thorax -2.57007 0.346755 4.36821
lowerneck -21.2565 2.52503 3.57035
upperneck 17.8415 2.98852 -2.70926
head 9.20776 1.34491 -1.09998
rclavicle 1.49585e-014 4.81059e-014
rhumerus -43.0692 3.27092 -86.7451
rradius 30.844
rwrist 3.32698
rhand -7.85123 -30.9535
rfingers 7.12502
rthumb 18.052 -60.1358
lclavicle 1.49585e-014 4.81059e-014
lhumerus -18.4808 -14.6044 87.7293
lradius 30.8402
lwrist -11.5113
lhand -14.6221 -25.9464
lfingers 7.12502
lthumb 11.5292 3.71651
rfemur -24.7504 -5.14075 8.27786
rtibia 64.0689
rfoot -12.1234 -3.72166
rtoes 7.48154
lfemur 6.80456 -0.940253 -33.2677
ltibia 11.8765
lfoot -19.4631 6.67895
ltoes -8.01469
140
root -17.4424 16.9444 0.646538 84.776 79.9305 85.3613
lowerback 11.236 1.29382 -13.7404
upperback 3.53862 0.351984 -2.87949
thorax -2.56952 0.28274 4.60889
lowerneck -21.4072 2.59856 3.72116
upperneck 17.957 3.05913 -2.79676
head 9.28103 1.37689 -1.14385
rclavicle 1.10822e-014 4.29375e-014
rhumerus -43.6536 3.31283 -86.4603
rradius 31.1412
rwrist 2.97623
rhand -6.41306 -32.335
rfingers 7.12502
rthumb 19.4352 -61.3836
lclavicle 1.10822e-014 4.29375e-014
lhumerus -18.2067 -15.5103 87.716
lradius 32.1208
lwrist -10.4456
lhand -15.07 -25.7594
lfingers 7.12502
lthumb 11.0972 3.92717
rfemur -26.0098 -5.50258 8.36766
rtibia 62.5856
rfoot -12.8907 -4.53899
rtoes 7.38536
lfemur 7.9045 -1.0619 -33.4657
ltibia 10.8822
lfoot -19.502 6.60702
ltoes -7.04044
141
root -17.2749 16.9387 0.642013 85.9992 79.886 86.5583
lowerback 11.1771 1.17923 -13.9526
upperback 3.61936 0.200768 -2.75296
thorax -2.42056 0.194999 4.8817
lowerneck -21.6192 2.69652 3.64176
upperneck 17.8615 3.15854 -2.59128
head 9.28348 1.4381 -1.0439
rclavicle -1.44119e-015 -1.49089e-014
rhumerus -43.9998 3.49359 -86.1925
rradius 31.3716
rwrist 2.43104
rhand -6.60008 -32.246
rfingers 7.12502
rthumb 19.2554 -61.3127
lclavicle -1.44119e-015 -1.49089e-014
lhumerus -17.6142 -16.3078 87.6539
lradius 33.1488
lwrist -9.3482
lhand -15.5463 -25.723
lfingers 7.12502
lthumb 10.6378 3.98778
rfemur -27.1671 -5.74723 8.47197
rtibia 60.9005
rfoot -13.6653 -5.59126
rtoes 6.61725
lfemur 8.98772 -1.2612 -33.6515
ltibia 9.93837
lfoot -19.5362 6.60263
ltoes -6.43586
142
root -17.106 16.9291 0.636284 87.3921 79.9744 87.8933
lowerback 11.2934 1.15022 -13.8991
upperback 3.44 0.122043 -2.6656
thorax -2.66498 0.174465 4.95498
lowerneck -21.2186 2.63441 3.65037
upperneck 17.6685 3.02798 -2.35241
head 9.13758 1.40892 -0.984519
rclavicle -4.57205e-015 -2.20651e-014
rhumerus -44.9419 3.40106 -85.9479
rradius 31.7662
rwrist 1.72005
rhand -7.35171 -31.6094
rfingers 7.12502
rthumb 18.5325 -60.7466
lclavicle -4.57205e-015 -2.20651e-014
lhumerus -17.0163 -16.9854 87.7117
lradius 33.5605
lwrist -8.17697
lhand -15.8109 -26.1397
lfingers 7.12502
lthumb 10.3826 3.58396
rfemur -28.2031 -5.88609 8.70264
rtibia 58.9233
rfoot -14.0905 -6.89
rtoes 7.71819
lfemur 10.0178 -1.4301 -33.6729
ltibia 9.04884
lfoot -19.5838 6.62151
ltoes -6.22075
143
root -16.9359 16.9133 0.628671 88.3983 79.9631 88.8059
lowerback 10.9593 1.03225 -14.0685
upperback 3.59751 0.0277236 -2.49463
thorax -2.2904 0.0963278 5.24479
lowerneck -21.3578 2.69681 3.73537
upperneck 17.4628 3.09503 -2.44945
head 9.09587 1.43229 -1.02149
rclavicle 1.48592e-014 6.79844e-014
rhumerus -45.3508 3.74442 -85.7349
rradius 32.3368
rwrist 0.910989
rhand -7.83368 -31.7156
rfingers 7.12502
rthumb 18.0689 -60.8963
lclavicle 1.48592e-014 6.79844e-014
lhumerus -16.7546 -17.5149 87.6178
lradius 35.5022
lwrist -6.72574
lhand -15.7064 -25.9462
lfingers 7.12502
lthumb 10.4834 3.77236
rfemur -29.1635 -6.04559 8.77584
rtibia 56.8339
rfoot -14.6765 -7.91261
rtoes 10.4418
lfemur 11.0285 -1.50576 -33.8041
ltibia 8.12502
lfoot -19.6515 6.60583
ltoes -5.54068
144
root -16.7678 16.8913 0.62378 89.9284 79.875 90.2423
lowerback 11.2954 0.828259 -14.1637
upperback 3.48016 -0.323059 -2.61103
thorax -2.53349 -0.0540874 5.21867
lowerneck -21.8048 2.98561 4.4184
upperneck 17.6202 3.2624 -2.47687
head 9.24757 1.54971 -1.11422
rclavicle 9.98893e-015 4.39314e-014
rhumerus -45.852 3.72169 -85.8189
rradius 32.4832
rwrist 0.598569
rhand -8.42023 -30.3336
rfingers 7.12502
rthumb 17.5045 -59.5655
lclavicle 9.98893e-015 4.39314e-014
lhumerus -16.8087 -18.2872 86.9903
lradius 37.3188
lwrist -5.21836
lhand -14.9754 -25.3648
lfingers 7.12502
lthumb 11.1884 4.31687
rfemur -29.9761 -6.36603 8.72921
rtibia 54.5865
rfoot -15.0952 -8.79447
rtoes 12.6662
lfemur 11.9383 -1.54007 -33.9707
ltibia 7.38824
lfoot -19.6761 6.66396
ltoes -6.62789
145
root -16.6074 16.8663 0.624313 92.2449 79.8415 92.4735
lowerback 11.323 0.831638 -14.3321
upperback 3.30353 -0.366843 -2.35219
thorax -2.72667 -0.0622299 5.59486
lowerneck -20.988 2.7882 3.94215
upperneck 17.1921 3.11371 -2.21691
head 8.93784 1.48376 -0.975893
rclavicle 5.71506e-015 3.51849e-014
rhumerus -46.7039 3.46282 -85.0759
rradius 32.6532
rwrist 0.265887
rhand -8.71178 -29.3598
rfingers 7.12502
rthumb 17.2239 -58.6165
lclavicle 5.71506e-015 3.51849e-014
lhumerus -16.7818 -18.9934 87.3967
lradius 38.5128
lwrist -4.16203
lhand -14.4699 -25.1364
lfingers 7.12502
lthumb 11.676 4.51825
rfemur -30.6575 -6.76587 8.7411
rtibia 52.0302
rfoot -14.9594 -9.66252
rtoes 13.0422
lfemur 12.7378 -1.54053 -33.9627
ltibia 6.86886
lfoot -19.7479 6.64149
ltoes -8.73371
146
root -16.435 16.8373 0.620375 92.8457 79.8269 92.9221
lowerback 10.7342 0.627869 -14.5568
upperback 3.70397 -0.498796 -2.23537
thorax -1.93435 -0.19528 5.85596
lowerneck -21.6654 3.00502 4.13304
upperneck 16.9822 3.32551 -2.28635
head 8.99495 1.57915 -0.995318
rclavicle -7.85199e-015 -5.04913e-014
rhumerus -46.2667 3.64888 -84.8731
rradius 32.631
rwrist -0.0500564
rhand -8.83738 -29.0205
rfingers 7.12502
rthumb 17.103 -58.2877
lclavicle -7.85199e-015 -5.04913e-014
lhumerus -15.5058 -19.1381 86.853
lradius 39.513
lwrist -2.93491
lhand -15.7003 -25.8146
lfingers 7.12502
lthumb 10.4893 3.90365
rfemur -31.3341 -6.90407 8.77499
rtibia 49.3009
rfoot -14.6484 -10.1723
rtoes 13.8069
lfemur 13.6115 -1.32578 -33.9168
ltibia 6.18215
lfoot -19.9537 6.37419
ltoes -8.19319
